<?xml version="1.0" encoding="UTF-8"?>
<svg width="1918.543" height="387.207" viewBox="0 2.22 1918.543 387.207" class="default-border is-view-tool-active" data-shape-id="s99a8e+60-2d14-4db0-b4a5-8f3607be8203" xmlns="http://www.w3.org/2000/svg" xmlns:xlink="http://www.w3.org/1999/xlink">
  <defs>
    <linearGradient id="linear-gradient-sbcc12719-a597-409e-9d3b-a9741536f599" x1="100.4%" y1="96.6%" x2="0.3%" y2="84.4%" spreadMethod="pad">
      <stop offset="0%" stop-color="#ff3c3c" stop-opacity="1"/>
      <stop offset="22.3%" stop-color="#b30000" stop-opacity="1"/>
      <stop offset="65.2%" stop-color="#4d0000" stop-opacity="1"/>
    </linearGradient>
  </defs>
  <g style="">
    <view id="view-2" viewBox="0 2.22 1918.543 387.207"/>
    <g/>
    <g transform="translate(0, -3.793)" data-editor-transform="true"/>
    <path fill="url(#linear-gradient-sbcc12719-a597-409e-9d3b-a9741536f599)" stroke="none" stroke-width="2" d="M 1304.859 393.22 H 0 V 2.22 H 1920 V 393.22 H 1304.859"/>
    <path fill="#ffffff" stroke="#ffffff" stroke-width="2" d="M -82.362 44.748 C -82.362 44.748 -66.388 47.127 -66.388 47.127 C -66.388 47.127 -66.388 47.127 -66.388 47.127 C -66.388 47.127 -9.51 55.595 -9.51 55.595 C -9.51 55.595 -9.51 55.595 -9.51 55.595 C -9.51 55.595 -6.159 56.094 -6.159 56.094 C -6.159 56.094 -6.159 56.094 -6.159 56.094 C -6.159 56.094 -4.223 56.382 -4.223 56.382 C -4.223 56.382 -4.223 56.382 -4.223 56.382 C -4.223 56.382 -2.642 56.472 -2.642 56.472 C -2.642 56.472 -2.642 56.472 -2.642 56.472 C -2.642 56.472 -1.655 56.526 -1.158 56.551 C 55.687 59.379 165.733 3.089 249.663 1.31 C 332.458 -0.445 416.019 45.004 498.991 44.607 C 579.742 44.221 659.981 2.062 740.854 1.31 C 826.171 0.517 911.854 43.784 997.647 44.607 C 1085.528 45.45 1174.234 3.687 1261.905 4.296 C 1340.872 4.844 1419.829 42.041 1497.797 40.128 C 1566.491 38.443 1634.05 2.906 1702.335 2.803 C 1773.883 2.695 1846.181 39.923 1917.325 43.114 C 1968.844 45.425 2071.066 33.929 2071.066 33.929 C 2071.066 33.929 2071.066 33.929 2071.066 33.929 C 2071.066 33.929 2117.906 28.212 2117.906 28.212 C 2117.906 28.212 2117.906 28.212 2117.906 28.212 C 2117.906 28.212 2183.807 18.38 2181.583 2.803 C 2180.805 -2.647 2170.636 -16.158 2170.636 -16.158 C 2170.636 -16.158 2170.636 -16.158 2170.636 -16.158 C 2170.636 -16.158 2015.996 -79.905 2015.996 -79.905 C 2015.996 -79.905 2015.996 -79.905 2015.996 -79.905 C 2015.996 -79.905 1968.585 -94.132 1968.585 -94.132 C 1968.585 -94.132 1968.585 -94.132 1968.585 -94.132 C 1968.585 -94.132 1871.69 -125.709 1871.69 -125.709 C 1871.69 -125.709 1871.69 -125.709 1871.69 -125.709 C 1871.69 -125.709 1280.601 -238.084 991.675 -240.553 C 789.904 -242.277 392.816 -193.331 392.816 -193.331 C 392.816 -193.331 392.816 -193.331 392.816 -193.331 C 392.816 -193.331 123.757 -153.958 123.757 -153.958 C 123.757 -153.958 123.757 -153.958 123.757 -153.958 C 123.757 -153.958 2.23 -133.471 2.23 -133.471 C 2.23 -133.471 2.23 -133.471 2.23 -133.471 C 2.23 -133.471 -0.371 -133.033 -0.371 -133.033 C -0.371 -133.033 -0.371 -133.033 -0.371 -133.033 C -0.371 -133.033 -0.371 -133.033 -0.371 -133.033 C -0.371 -133.033 -243.747 -32.499 -222.119 -0.183 C -209.267 19.019 -82.362 44.748 -82.362 44.748" fill-rule="evenodd" stroke-linejoin="round" stroke-linecap="round"/>
  </g>
</svg>